HIERARCHY
ROOT Hips
{
	OFFSET -0.001795 -0.223333 0.028219
	CHANNELS 6 Xposition Yposition Zposition Zrotation Yrotation Xrotation 
	JOINT LeftUpLeg
	{
		OFFSET 0.069520 -0.091406 -0.006815
		CHANNELS 3 Zrotation Yrotation Xrotation
		JOINT LeftLeg
		{
			OFFSET 0.034277 -0.375199 -0.004496
			CHANNELS 3 Zrotation Yrotation Xrotation
			JOINT LeftFoot
			{
				OFFSET -0.013596 -0.397961 -0.043693
				CHANNELS 3 Zrotation Yrotation Xrotation
				JOINT LeftToe
				{
					OFFSET 0.026358 -0.055791 0.119288
					CHANNELS 3 Zrotation Yrotation Xrotation
					End Site
					{
						OFFSET 0.000000 0.000000 0.000000
					}
				}
			}
		}
	}
	JOINT RightUpLeg
	{
		OFFSET -0.067670 -0.090522 -0.004320
		CHANNELS 3 Zrotation Yrotation Xrotation
		JOINT RightLeg
		{
			OFFSET -0.038290 -0.382569 -0.008850
			CHANNELS 3 Zrotation Yrotation Xrotation
			JOINT RightFoot
			{
				OFFSET 0.015774 -0.398415 -0.042312
				CHANNELS 3 Zrotation Yrotation Xrotation
				JOINT RightToe
				{
					OFFSET -0.025372 -0.048144 0.123348
					CHANNELS 3 Zrotation Yrotation Xrotation
					End Site
					{
						OFFSET 0.000000 0.000000 0.000000
					}
				}
			}
		}
	}
	JOINT Spine
	{
		OFFSET -0.002533 0.108963 -0.026696
		CHANNELS 3 Zrotation Yrotation Xrotation
		JOINT Spine1
		{
			OFFSET 0.005487 0.135180 0.001092
			CHANNELS 3 Zrotation Yrotation Xrotation
			JOINT Spine2
			{
				OFFSET 0.001457 0.052922 0.025425
				CHANNELS 3 Zrotation Yrotation Xrotation
				JOINT Neck
				{
					OFFSET -0.002778 0.213870 -0.042857
					CHANNELS 3 Zrotation Yrotation Xrotation
					JOINT Head
					{
						OFFSET 0.005152 0.064970 0.051349
						CHANNELS 3 Zrotation Yrotation Xrotation
						End Site
						{
							OFFSET 0.000000 0.000000 0.000000
						}
					}
				}
				JOINT LeftShoulder
				{
					OFFSET 0.078845 0.121749 -0.034090
					CHANNELS 3 Zrotation Yrotation Xrotation
					JOINT LeftArm
					{
						OFFSET 0.090977 0.030469 -0.008868
						CHANNELS 3 Zrotation Yrotation Xrotation
						JOINT LeftForeArm
						{
							OFFSET 0.259612 -0.012772 -0.027456
							CHANNELS 3 Zrotation Yrotation Xrotation
							JOINT LeftHand
							{
								OFFSET 0.249234 0.008986 -0.001171
								CHANNELS 3 Zrotation Yrotation Xrotation
								End Site
								{
									OFFSET 0.000000 0.000000 0.000000
								}
							}
						}
					}
				}
				JOINT RightShoulder
				{
					OFFSET -0.081759 0.118833 -0.038615
					CHANNELS 3 Zrotation Yrotation Xrotation
					JOINT RightArm
					{
						OFFSET -0.096012 0.032551 -0.009143
						CHANNELS 3 Zrotation Yrotation Xrotation
						JOINT RightForeArm
						{
							OFFSET -0.253742 -0.013329 -0.021401
							CHANNELS 3 Zrotation Yrotation Xrotation
							JOINT RightHand
							{
								OFFSET -0.255298 0.007772 -0.005559
								CHANNELS 3 Zrotation Yrotation Xrotation
								End Site
								{
									OFFSET 0.000000 0.000000 0.000000
								}
							}
						}
					}
				}
			}
		}
	}
}
MOTION
Frames: 16
Frame Time: 0.050000
0.000000 0.952576 0.000000 -0.188608 -4.548180 4.010676 2.101745 -0.593178 -7.826024 0.401340 -0.055712 0.263356 -2.973517 -1.863615 9.627535 0.000000 0.000000 0.000000 -0.682972 0.888455 -9.080897 -3.746589 0.593060 3.021084 1.902750 -0.573660 9.006357 0.000000 0.000000 0.000000 4.790464 -0.186644 1.035351 -2.090220 0.977892 -2.055366 -3.724666 2.832791 9.641474 6.792511 -3.932208 -10.153393 0.000000 0.000000 0.000000 -10.872845 -11.372297 4.113124 -42.488906 -18.406805 0.799618 -79.207207 -58.331645 53.057139 0.000000 0.000000 0.000000 4.556245 2.637426 0.730758 35.198886 -5.043890 -4.911726 83.059996 39.035600 35.923104 0.000000 0.000000 0.000000 
0.001678 0.950172 0.001245 -0.617235 -5.812448 4.664931 2.390047 -0.547868 -7.434270 0.312156 -0.032732 -0.107890 -2.512949 -1.672156 8.395124 0.000000 0.000000 0.000000 -0.826881 0.893558 -9.145246 -3.419203 0.559359 3.196557 2.088245 0.569892 7.333510 0.000000 0.000000 0.000000 5.464899 -0.194357 0.796707 -2.650679 1.213113 -2.676781 -4.381752 5.225178 10.021065 9.275416 -5.857366 -8.693620 0.000000 0.000000 0.000000 -11.041250 -10.013622 3.204712 -42.963189 -17.255743 0.439980 -88.017056 -56.175272 57.372768 0.000000 0.000000 0.000000 3.795684 -0.007942 -0.165402 33.952817 -9.349409 -5.784273 90.772636 32.708514 34.751288 0.000000 0.000000 0.000000 
0.002962 0.949051 0.002238 -0.487249 -4.766936 5.023432 1.935589 -0.621482 -8.044785 1.203696 -0.203731 1.547379 -2.634529 -2.750326 6.130429 0.000000 0.000000 0.000000 -1.051184 0.888287 -9.188885 -3.425658 0.588282 3.525971 1.091538 -0.629343 5.707385 0.000000 0.000000 0.000000 6.261352 -0.170587 0.212236 -2.724629 1.257978 -2.249164 -6.126152 5.088798 9.864840 9.596093 -6.460310 -6.781672 0.000000 0.000000 0.000000 -12.051561 -8.317013 2.271217 -42.216078 -13.169255 -0.914346 -93.324122 -53.774219 58.928689 0.000000 0.000000 0.000000 4.118452 -1.735493 -0.828640 31.948079 -15.743949 -6.761492 100.208973 29.123849 36.248554 0.000000 0.000000 0.000000 
0.003468 0.947853 0.003539 -0.561063 -5.195761 5.586377 2.560979 -0.621164 -8.601729 0.490473 -0.104310 1.351157 -2.635698 -2.291318 7.301389 0.000000 0.000000 0.000000 -1.618286 0.955140 -10.080089 -2.661229 0.558626 4.542704 1.165819 -0.467492 5.654939 0.000000 0.000000 0.000000 6.106637 -0.144017 -0.127883 -3.358413 1.515086 -3.332335 -5.474035 5.806376 10.883931 10.487690 -7.039967 -7.293833 0.000000 0.000000 0.000000 -13.094215 -5.622169 0.927894 -41.885415 -9.016920 -2.324154 -98.264101 -50.052839 58.976731 0.000000 0.000000 0.000000 3.252365 -4.613617 -1.883158 28.765659 -18.907827 -6.591657 109.172692 24.007436 34.795980 0.000000 0.000000 0.000000 
0.003442 0.947728 0.005165 -0.635864 -5.282094 5.394927 2.201502 -0.628241 -8.410973 0.973238 -0.183229 1.787675 -2.226116 -1.794917 6.671754 0.000000 0.000000 0.000000 -1.800659 0.918820 -9.765417 -2.443286 0.526259 4.502833 1.224603 -0.350542 5.666900 0.000000 0.000000 0.000000 6.444299 -0.159350 0.012147 -3.774174 1.709480 -2.911989 -5.876776 5.238407 10.715067 10.244420 -7.118733 -6.285307 0.000000 0.000000 0.000000 -13.599145 -3.552504 0.002864 -41.367213 -3.706443 -3.993040 -102.927974 -50.912640 64.424177 0.000000 0.000000 0.000000 2.280392 -6.825591 -2.651061 27.686321 -22.665591 -6.940916 116.892957 19.820110 32.421067 0.000000 0.000000 0.000000 
0.003062 0.947585 0.007097 -0.673916 -5.616512 5.267606 2.086748 -0.619766 -8.220326 1.001322 -0.175018 1.471304 -2.460944 -2.098617 7.068247 0.000000 0.000000 0.000000 -2.080985 0.899266 -9.650359 -2.147972 0.487919 4.532248 1.457240 0.201797 5.565309 0.000000 0.000000 0.000000 6.476607 -0.159190 0.044585 -4.076874 1.831722 -3.272721 -5.626803 5.328319 10.902264 10.391687 -7.318218 -5.993411 0.000000 0.000000 0.000000 -13.621663 -2.119423 -0.648504 -43.106173 -0.118097 -5.383371 -102.418699 -51.631053 64.911651 0.000000 0.000000 0.000000 1.693280 -8.263348 -3.122915 27.061003 -25.370224 -7.214109 122.249566 16.506363 29.506987 0.000000 0.000000 0.000000 
0.002438 0.947416 0.009020 -0.702055 -5.784493 5.227421 2.060158 -0.555275 -7.250863 0.956933 -0.128294 0.406042 -2.206814 -1.482473 7.472031 0.000000 0.000000 0.000000 -1.852584 0.880477 -9.348039 -2.551895 0.544787 4.561368 1.400711 0.311310 5.120250 0.000000 0.000000 0.000000 6.572348 -0.102685 -0.518740 -4.348371 1.969482 -2.732555 -5.836621 5.095429 10.555106 10.087020 -7.102665 -5.916148 0.000000 0.000000 0.000000 -13.751793 -0.612358 -1.339126 -44.163103 1.667786 -6.124684 -100.732406 -52.516373 64.504549 0.000000 0.000000 0.000000 1.255703 -8.606898 -3.192790 27.352331 -26.009354 -7.417086 124.074846 15.752010 28.935772 0.000000 0.000000 0.000000 
0.001829 0.946698 0.010441 -0.960153 -5.570184 5.078611 2.305488 -0.492806 -6.494099 0.920872 -0.100883 -0.173728 -2.142298 -1.334347 7.494648 0.000000 0.000000 0.000000 -1.589230 0.862243 -9.067478 -2.741483 0.566190 4.494234 1.222164 0.312366 4.433365 0.000000 0.000000 0.000000 6.439296 -0.117001 -0.322240 -3.765754 1.701162 -3.066105 -6.419002 5.367111 10.584209 10.787427 -7.404982 -6.821337 0.000000 0.000000 0.000000 -13.542829 -0.699615 -1.357787 -45.971946 2.858694 -6.824739 -99.010496 -53.658540 64.009202 0.000000 0.000000 0.000000 0.648831 -8.471550 -3.071755 28.307120 -25.444428 -7.597322 124.963722 15.550605 29.617643 0.000000 0.000000 0.000000 
0.001102 0.946097 0.010916 -1.054950 -5.627132 5.080077 2.216893 -0.471080 -6.116492 1.083540 -0.124588 -0.056191 -1.895728 -1.072166 7.009274 0.000000 0.000000 0.000000 -1.245392 0.840991 -8.727760 -2.862559 0.561243 4.198683 1.108685 0.089908 4.356384 0.000000 0.000000 0.000000 6.635636 -0.120240 -0.322090 -3.645085 1.643059 -3.210861 -6.746459 5.526410 10.531251 11.197449 -7.506402 -7.667081 0.000000 0.000000 0.000000 -13.638034 -1.631693 -0.958354 -46.486666 1.442711 -6.393319 -94.391227 -55.501609 61.827415 0.000000 0.000000 0.000000 0.757376 -7.459609 -2.718679 28.147543 -22.778752 -7.070745 124.365770 15.642585 29.721871 0.000000 0.000000 0.000000 
0.000310 0.945252 0.010616 -1.143711 -6.074345 5.063009 2.309925 -0.441883 -5.769962 1.240695 -0.142103 -0.096271 -1.548523 -0.517692 6.868525 0.000000 0.000000 0.000000 -0.966553 0.826292 -8.486315 -3.027196 0.577742 4.134009 0.989882 -0.151465 4.245865 0.000000 0.000000 0.000000 6.516579 -0.150975 0.028951 -3.258986 1.455414 -3.771025 -7.266768 6.291301 10.524509 12.209814 -8.155116 -8.002649 0.000000 0.000000 0.000000 -13.541767 -2.756719 -0.520505 -46.226181 0.682651 -6.067813 -91.488984 -55.950657 59.477884 0.000000 0.000000 0.000000 1.315254 -5.999987 -2.240984 28.045493 -19.851666 -6.524774 122.737768 15.778651 29.646810 0.000000 0.000000 0.000000 
-0.000389 0.944979 0.009849 -1.281269 -6.187901 5.045871 2.601837 -0.430369 -5.781706 1.126055 -0.123848 -0.219267 -1.359667 -0.084518 7.117698 0.000000 0.000000 0.000000 -0.743824 0.814932 -8.310971 -2.936661 0.537297 3.745923 0.915595 -0.543775 4.621400 0.000000 0.000000 0.000000 6.517348 -0.178440 0.311852 -3.208396 1.433087 -3.746095 -7.147702 6.620179 10.282467 12.777330 -8.399838 -8.586548 0.000000 0.000000 0.000000 -13.110565 -4.296915 0.192982 -46.128665 -0.047371 -5.764131 -90.087280 -55.417008 57.559767 0.000000 0.000000 0.000000 1.147277 -4.428076 -1.647439 27.721020 -16.866114 -5.911484 121.162422 16.099071 29.704824 0.000000 0.000000 0.000000 
-0.000883 0.944636 0.009046 -1.326852 -6.499782 5.147796 2.627526 -0.438239 -5.941134 1.139327 -0.126600 -0.203883 -1.134897 0.433769 7.493836 0.000000 0.000000 0.000000 -0.365353 0.826380 -8.326547 -3.378632 0.562464 3.344259 0.996760 -0.575085 4.957587 0.000000 0.000000 0.000000 6.459561 -0.189709 0.431633 -3.110202 1.383636 -3.889244 -7.164899 6.873656 10.092118 13.239822 -8.645296 -8.911966 0.000000 0.000000 0.000000 -12.703704 -4.767653 0.432984 -45.580886 -0.305588 -5.583931 -90.361482 -54.149798 56.381747 0.000000 0.000000 0.000000 1.256076 -3.185466 -1.195874 27.072474 -14.976253 -5.437152 120.090609 16.487117 29.902997 0.000000 0.000000 0.000000 
-0.001210 0.944602 0.008263 -1.253825 -6.625183 5.302539 2.576107 -0.457186 -6.201166 1.189234 -0.116878 -0.579271 -0.941979 1.036951 8.283867 0.000000 0.000000 0.000000 -0.418481 0.843918 -8.508297 -3.557625 0.577262 3.256661 0.965797 -0.916913 5.424107 0.000000 0.000000 0.000000 6.384676 -0.207763 0.606088 -3.218725 1.418269 -4.343689 -6.948773 7.306005 10.411964 13.786186 -8.829712 -9.704750 0.000000 0.000000 0.000000 -12.442639 -5.299780 0.661121 -44.620689 -0.134737 -5.526579 -92.225428 -52.208368 55.719132 0.000000 0.000000 0.000000 1.153275 -2.875312 -1.073177 27.004502 -13.757404 -5.231988 119.216692 16.544495 29.816081 0.000000 0.000000 0.000000 
-0.001688 0.944789 0.007450 -1.368055 -7.025101 5.323117 2.666072 -0.465973 -6.447012 1.347627 -0.145507 -0.353908 -0.539680 1.815799 8.584216 0.000000 0.000000 0.000000 -0.093184 0.833028 -8.325331 -3.734665 0.564228 2.835402 0.896795 -1.363342 5.892795 0.000000 0.000000 0.000000 6.456844 -0.218202 0.708224 -3.360569 1.474362 -4.368429 -6.803831 7.562655 10.400237 13.779285 -8.660429 -10.285346 0.000000 0.000000 0.000000 -12.034695 -5.147615 0.629752 -43.952647 -0.211698 -5.415352 -94.441278 -50.523826 55.693307 0.000000 0.000000 0.000000 0.974529 -2.337694 -0.866769 27.628251 -12.436823 -5.145435 118.314045 17.028856 30.275743 0.000000 0.000000 0.000000 
-0.002432 0.945083 0.006180 -1.227157 -7.114700 5.385917 2.667253 -0.482386 -6.713267 1.356479 -0.143747 -0.422243 -0.564892 1.857255 8.900723 0.000000 0.000000 0.000000 -0.332046 0.851999 -8.562509 -3.621889 0.544916 2.768588 0.822821 -1.721048 6.241535 0.000000 0.000000 0.000000 6.259764 -0.205270 0.613238 -3.371261 1.471622 -4.603840 -6.569953 7.873117 10.567285 13.843673 -8.622366 -10.575501 0.000000 0.000000 0.000000 -12.122582 -5.022954 0.534892 -43.459881 -0.427120 -5.280502 -96.370853 -48.833667 55.315117 0.000000 0.000000 0.000000 1.576736 -1.843476 -0.705859 27.898141 -11.198304 -5.004153 117.366636 17.864778 31.363257 0.000000 0.000000 0.000000 
-0.003546 0.945501 0.004405 -1.355209 -7.291677 5.804311 2.815538 -0.531232 -7.638905 1.524583 -0.175153 -0.154147 -0.285930 2.322237 8.870096 0.000000 0.000000 0.000000 -0.007746 0.936123 -9.261603 -3.782945 0.606224 3.309339 0.572985 -2.295236 6.260491 0.000000 0.000000 0.000000 6.156420 -0.199215 0.491800 -3.424872 1.499671 -4.286320 -6.289346 8.458194 10.242925 13.858295 -8.532841 -10.735899 0.000000 0.000000 0.000000 -12.108427 -5.490654 0.661439 -43.145087 -1.503739 -4.832592 -97.392554 -48.784187 55.842029 0.000000 0.000000 0.000000 2.342843 -1.156520 -0.460151 28.684649 -9.830692 -4.912726 116.070027 20.200938 34.939908 0.000000 0.000000 0.000000 
